<svg width="186" height="43" viewBox="0 0 186 43" fill="none" xmlns="http://www.w3.org/2000/svg">
<path d="M181.134 25.1614L177.352 33.8776L173.57 25.1614H169.017V37.5772H172.316V29.7132L175.982 37.5772H178.684L182.35 29.7132V37.5772H185.649V25.1614H181.134ZM159.832 24.8127C163.594 24.8127 167.319 27.0208 167.319 31.379C167.319 35.7371 163.594 37.9452 159.832 37.9452C156.069 37.9452 152.345 35.7371 152.345 31.379C152.345 27.0208 156.069 24.8127 159.832 24.8127ZM159.832 35.0011C161.877 35.0011 163.787 33.6646 163.787 31.3984C163.787 29.1128 161.877 27.7762 159.832 27.7762C157.786 27.7762 155.876 29.1128 155.876 31.3984C155.876 33.6646 157.786 35.0011 159.832 35.0011ZM81.7035 27.9312H85.7942V37.6159H89.2675V27.9312H93.3582V25.1807H81.7035V27.9312ZM131.467 24.8127C135.384 24.8127 138.143 27.3889 138.143 31.0303V32.1344H127.589C127.82 34.0326 129.306 35.2529 131.351 35.2529C133.204 35.2529 133.976 34.5168 134.825 33.5484L137.584 34.8074C136.195 36.938 134.304 37.9646 131.293 37.9646C127.492 37.9646 124.251 35.3304 124.251 31.3984C124.251 27.447 127.492 24.8127 131.467 24.8127ZM134.902 29.7326C134.574 28.183 133.281 27.2339 131.351 27.2339C129.538 27.2339 128.148 28.338 127.647 29.7326H134.902ZM101.482 24.8127C105.399 24.8127 108.158 27.3889 108.158 31.0303V32.1344H97.6224C97.8347 34.0326 99.3398 35.2529 101.385 35.2529C103.238 35.2529 104.009 34.5168 104.858 33.5484L107.618 34.8074C106.228 36.938 104.337 37.9646 101.327 37.9646C97.526 37.9646 94.2843 35.3304 94.2843 31.3984C94.2843 27.447 97.5067 24.8127 101.482 24.8127ZM104.936 29.7326C104.608 28.183 103.315 27.2339 101.385 27.2339C99.5713 27.2339 98.1821 28.338 97.6804 29.7326H104.936ZM111.342 32.2119C111.168 34.1101 110.763 34.5362 110.049 34.5362C109.566 34.5362 109.335 34.4781 108.988 34.4006L109.007 37.6159C109.007 37.6159 109.431 37.7321 110.242 37.7321C113.194 37.7321 114.294 36.0083 114.583 32.3087L114.911 27.97H118.828V37.5578H122.302V25.142H111.921L111.342 32.2119ZM74.3325 35.0011C72.2293 35.0011 70.6857 33.6258 70.6857 31.3984C70.6857 29.1902 72.2872 27.7762 74.3325 27.7762C75.5674 27.7762 76.648 28.2992 77.5163 29.4808L80.4878 27.9312C79.4845 25.9943 77.3427 24.8127 74.3711 24.8127C70.4734 24.8127 67.1739 27.4276 67.1739 31.379C67.1739 35.3497 70.319 37.9452 74.3711 37.9452C77.3041 37.9452 79.2529 36.7443 80.6422 34.6137L77.7672 33.1803C76.9182 34.2457 76.0305 35.0011 74.3325 35.0011ZM57.9698 24.8127C61.7324 24.8127 65.4565 27.0208 65.4565 31.379C65.4565 35.7371 61.7324 37.9452 57.9698 37.9452C54.2071 37.9452 50.483 35.7371 50.483 31.379C50.483 27.0208 54.2071 24.8127 57.9698 24.8127ZM57.9698 35.0011C60.0151 35.0011 61.9254 33.6646 61.9254 31.3984C61.9254 29.1128 60.0151 27.7762 57.9698 27.7762C55.9244 27.7762 54.0142 29.1128 54.0142 31.3984C54.0142 33.6646 55.9244 35.0011 57.9698 35.0011ZM42.5139 20.0479C46.8747 20.0479 49.7498 22.0816 49.7498 25.7618C49.7498 29.442 46.8747 31.4758 42.5139 31.4758H37.3813V37.5966H33.7344V20.0479H42.5139ZM42.3981 28.5317C44.9452 28.5317 46.103 27.4276 46.103 25.7812C46.103 24.1348 44.9452 23.0307 42.3981 23.0307H37.3813V28.551H42.3981V28.5317ZM146.46 30.9335L152.924 37.5966H148.737L143.739 32.4636V37.5966H140.266V25.1614H143.739V29.6745L148.66 25.1614H152.77L146.46 30.9335Z" fill="white"/>
<path d="M3.76124 42.6707C1.04054 42.6707 0.596661 40.2689 1.75441 39.223L10.1095 31.6883L22.2271 42.6901H3.76124V42.6707ZM10.341 31.4752L28.4983 15.0694L11.8654 0L2.44902 8.5419C-0.368154 11.0987 0.0178596 12.7644 0.0178596 16.1928V39.6297C0.0178596 41.4311 1.6773 43 3.76124 43H22.999L22.4588 42.5158L10.341 31.4752Z" fill="white"/>
<path d="M22.2449 42.67H3.77901C1.05833 42.67 0.63389 40.2681 1.79163 39.2222L10.1467 31.6875C10.1274 31.6875 22.2449 42.67 22.2449 42.67Z" fill="white"/>
</svg>
