<svg width="147" height="73" viewBox="0 0 147 73" fill="none" xmlns="http://www.w3.org/2000/svg">
<path d="M146.263 54.8765V72.0411H137.627V68.8097C140.344 68.8097 141.348 68.4623 141.348 66.0821V65.0571C141.348 62.8507 140.5 62.3295 137.956 62.3295H137.609V58.2469V55.0155H146.246V54.8765H146.263Z" fill="white"/>
<path d="M145.91 22.0776V47.0603H141.168V31.4244H141.012L138.468 47.0603H134.747L132.203 31.4244L135.076 30.9206L136.599 39.5898L139.645 22.0776H145.91Z" fill="white"/>
<path d="M120.873 54.8765V58.1079V59.9668H119.177V68.8097H116.633V72.0411H137.626V68.8097H135.082V58.1079H146.263V54.8765H120.873Z" fill="white"/>
<path d="M133.389 22.0776L135.085 30.9206L132.212 31.4244H132.039V47.0603H127.297V22.0776H133.389Z" fill="white"/>
<path d="M119.342 42.981V25.99C119.342 25.4862 118.995 25.1388 118.667 25.1388C118.32 25.1388 117.992 25.3125 117.992 25.99V42.981C117.992 43.6586 118.494 43.8323 118.667 43.8323C118.995 43.8323 119.342 43.4848 119.342 42.981ZM124.084 26.4939V42.4599C124.084 44.1624 123.911 46.8726 120.536 46.8726H116.642C113.25 46.8726 113.094 44.1451 113.094 42.4599V26.4939C113.094 24.7913 113.267 22.0811 116.642 22.0811H120.536C123.911 22.0811 124.084 24.8087 124.084 26.4939Z" fill="white"/>
<path d="M120.87 54.8826V58.114H114.951V59.9903H116.647V68.8332V72.0646H94.9609V68.8332H97.332V67.8082C99.7031 67.8082 100.88 67.3044 100.88 65.0806V61.6755C100.88 59.4691 99.8589 58.9479 97.332 58.9479V58.0966V54.8652H120.87V54.8826Z" fill="white"/>
<path d="M104.951 34.4848V26.3193C104.951 25.4681 104.605 25.138 104.103 25.138H103.428V35.8399H104.103C104.622 35.8399 104.951 35.336 104.951 34.4848ZM109.866 26.4931V33.9636C109.866 35.6661 109.693 38.3764 106.318 38.3764H103.445V46.8719H98.7031V21.8892H106.318C109.537 22.0803 109.866 24.8079 109.866 26.4931Z" fill="white"/>
<path d="M97.3314 54.88V58.1114H94.9603V58.9627C92.4161 58.9627 91.4123 59.4666 91.4123 61.6903V65.0955C91.4123 67.3019 92.5892 67.8231 94.9603 67.8231V68.8482V72.0796H71.0938V68.8482H77.0128V66.9718H74.6417V64.0879H76.6666V62.3853H74.6417V60.0051H76.8397V58.1288V54.8974H97.3314V54.88Z" fill="white"/>
<path d="M95.4843 22.0776V47.0603H90.7422V25.1353V22.0776H95.4843Z" fill="white"/>
<path d="M90.7417 22.0776V25.1353H89.2187V47.0603H84.4766V22.0776H90.7417Z" fill="white"/>
<path d="M81.2568 37.5433V42.6336C81.2568 44.3362 81.0838 47.0464 77.7089 47.0464H73.6417C70.2495 47.0464 70.0938 44.3188 70.0938 42.6336V38.3772H74.8359V43.1374C74.8359 43.815 75.3378 43.9887 75.5109 43.9887C76.0128 43.9887 76.1859 43.6413 76.1859 43.1374V37.3695C76.1859 36.5183 76.0128 35.667 74.3167 35.667H72.2918V32.9568H74.3167C75.6667 32.9568 76.1859 32.6093 76.1859 31.0805V26.1465C76.1859 25.6426 75.8397 25.2952 75.5109 25.2952C75.1647 25.2952 74.8359 25.4689 74.8359 26.1465V30.2292H70.0938V26.6677C70.0938 24.9651 70.2668 22.2549 73.6417 22.2549H77.7089C81.1011 22.2549 81.2568 24.9825 81.2568 26.6677V30.7504C81.2568 33.478 79.3877 34.1555 78.0377 34.1555V34.3292C81.2568 34.1555 81.2568 36.692 81.2568 37.5433Z" fill="white"/>
<path d="M54.5179 62.1732V58.0905H57.062V68.7923H54.5179V64.0321H53.1679V68.7923H50.6238V58.0905H53.1679V62.1732H54.5179ZM46.0547 54.8765V72.0411H71.9461V68.8097V58.1079H77.8652V54.8765H46.0547Z" fill="white"/>
<path d="M62.8075 37.7135L61.9595 25.1353H61.6133L60.7653 37.7135H62.8075ZM65.5248 22.0776L68.0689 47.0603H63.3268L62.8249 40.4411H60.6269L60.125 47.0603H55.3828L57.927 22.0776H65.5248Z" fill="white"/>
<path d="M55.3647 22.0776V25.1353H50.9687V47.0603H46.2266V22.9289V22.0776H55.3647Z" fill="white"/>
<path d="M43.1843 46.8877V64.0524C38.6152 68.9863 32.1769 72.044 25.0637 72.044H24.8906L25.0637 68.9863C28.6116 68.9863 32.1769 67.6313 34.8768 64.9037C37.5767 62.1761 37.5767 57.7633 34.8768 55.0531C32.1596 52.3255 27.7636 52.3255 25.0637 55.0531V47.2352H34.0461H36.5902H43.1843V46.8877Z" fill="white"/>
<path d="M34.0268 44.0063C34.8749 42.4775 36.0518 39.4198 36.0518 35.3371C35.8787 31.2544 34.5287 28.1967 34.0268 27.5192C33.5249 28.1967 32.0019 31.7756 32.0019 35.6672C32.0019 39.7499 33.1788 42.4775 34.0268 44.0063ZM39.4439 24.2877C39.4439 21.7339 39.2709 17.3211 37.9209 12.9083C36.7441 8.32175 34.1999 4.06531 33.8537 3.56149C33.5076 4.06531 31.6557 7.64421 29.9596 13.082C29.4577 14.7846 28.6097 18.3461 28.6097 21.7512C28.4366 25.9903 28.9558 30.073 29.2847 31.2718C29.2847 29.9167 29.2847 25.3301 30.1327 21.4212C30.9808 17.5122 32.6769 13.0994 33.8537 10.893C35.3768 13.2731 37.0729 18.3635 37.7479 21.4212C38.4228 24.4789 38.769 28.3878 38.5959 31.098C39.1151 29.5518 39.2882 27.0153 39.4439 24.2877ZM41.1401 22.9326C41.1401 24.8089 40.967 26.6679 40.6381 28.5442C39.4613 37.0397 35.5671 43.5025 33.871 45.7089C32.6769 44.1801 30.9981 41.2961 29.8039 38.3948C29.8039 38.3948 27.6059 33.1307 27.0867 27.8666C26.9136 26.164 26.7578 24.6352 26.7578 22.9326C26.7578 19.3711 27.2597 15.4621 28.4539 11.3794C29.977 5.94162 33.023 1.18138 33.871 0C34.373 0.851287 38.2671 6.2891 39.7901 13.082C40.8112 16.991 41.1401 20.0487 41.1401 22.9326Z" fill="white"/>
<path d="M25.0606 22.9331V41.1055C21.5127 41.1055 17.9474 42.4606 15.2475 45.1882C14.5726 45.8657 14.0707 46.5433 13.5514 47.2208C9.83043 52.6586 10.5054 60.1291 15.2475 64.8894C17.9647 67.5996 21.5127 68.9721 25.0606 68.9721L24.8876 72.0297C11.1804 72.0297 0 60.824 0 47.0471C0 33.2875 11.1631 22.0645 24.8876 22.0645H25.0606V22.9331Z" fill="white"/>
<path d="M138.299 64.0542H137.797V66.7818H138.299C138.801 66.7818 138.974 66.6081 138.974 66.1042V64.7491C138.974 64.2279 138.801 64.0542 138.299 64.0542Z" fill="white"/>
<path d="M98.5289 61.8479V65.253C98.5289 65.9306 98.3558 66.1043 97.8539 66.1043H97.5078V61.1703H97.8539C98.1828 60.9966 98.5289 61.1703 98.5289 61.8479Z" fill="white"/>
<path d="M94.9586 60.9989V65.9329H94.6125C94.1106 65.9329 93.9375 65.7591 93.9375 65.0816V61.6765C93.9375 60.9989 94.1106 60.8252 94.6125 60.8252H94.9586V60.9989Z" fill="white"/>
</svg>
