<svg width="227" height="29" viewBox="0 0 227 29" fill="none" xmlns="http://www.w3.org/2000/svg">
<path d="M141.825 23.3162V18.555L155.101 6.89697L150.824 3.09252L135.641 16.4192V26.6534C135.641 27.8326 136.351 28.322 137.304 28.322H169.796V23.0937H141.803V23.3162H141.825ZM131.408 26.6534L113.611 1.64638C113.367 1.40165 113.145 1.17917 113.145 0.934439C112.902 0.689708 112.902 0.68971 112.68 0.467228C112.436 0.222497 112.215 0.222496 111.971 0.222496H111.018H107.937C107.228 0.222496 106.518 0.222497 106.275 0.467228C106.031 0.711959 105.565 1.17916 105.1 1.66862L87.3026 26.6757C87.0588 26.9204 87.0588 27.1429 87.0588 27.3876C87.0588 27.6323 87.0588 28.0995 87.3026 28.0995C87.5464 28.3443 87.768 28.5668 88.2556 28.5668H90.8709H91.824C92.0678 28.5668 92.2894 28.5667 92.5332 28.322C92.777 28.322 92.9986 28.0773 92.9986 27.8548C93.2424 27.6101 93.2424 27.3876 93.4641 27.1429L109.112 5.00585L124.538 26.9204C125.003 27.3876 125.247 27.8771 125.734 28.1218C125.978 28.3665 126.687 28.3665 127.397 28.3665H130.477C130.943 28.3665 131.187 28.3665 131.43 27.8993C131.674 27.6546 131.674 27.4321 131.674 27.1874C131.874 27.1206 131.63 26.8759 131.408 26.6534ZM196.148 28.322C196.392 28.0773 196.857 27.8548 197.345 27.6101L221.304 5.47308V26.8981C221.304 28.0995 222.013 28.5668 222.966 28.5668H225.338C226.535 28.5668 227 27.8548 227 26.8981V2.11359C227 0.912188 226.291 0.444975 225.338 0.444975H219.642C218.932 0.444975 218.445 0.444976 218.223 0.689707C217.979 0.934438 217.514 1.15692 217.026 1.40165L193.067 23.5386V2.11359C193.067 0.912188 192.358 0.444975 191.405 0.444975H189.034C187.837 0.444975 187.371 1.15692 187.371 2.11359V26.8759C187.371 28.0773 188.081 28.5445 189.034 28.5445H194.73C195.439 28.5445 195.904 28.5445 196.148 28.322ZM78.2819 14.5059C78.2819 8.54333 75.2012 5.45083 69.5052 5.45083H58.3568C52.4392 5.45083 49.5801 8.54333 49.5801 14.5059C49.5801 20.4684 52.6608 23.5609 58.3568 23.5609H69.5052C75.179 23.3162 78.2819 20.4461 78.2819 14.5059ZM84.4434 14.5059C84.4434 19.267 83.2688 22.6042 80.8973 24.9848C78.5258 27.3653 74.9574 28.5445 70.4582 28.5445H57.1822C52.4392 28.5445 49.1146 27.3653 46.7431 24.9848C44.3716 22.6042 43.1747 19.0223 43.1747 14.5059C43.1747 9.98947 44.3716 6.40751 46.7431 4.02694C49.1146 1.64638 52.683 0.444975 57.1822 0.444975H70.4582C75.2012 0.444975 78.5258 1.64638 80.8973 4.02694C83.4904 6.16277 84.4434 9.74474 84.4434 14.5059ZM34.3979 28.5445C34.1542 28.5445 33.9325 28.5445 33.6887 28.2998C33.4449 28.2998 33.2232 28.055 32.9794 27.8326C32.7356 27.5878 32.5141 27.3653 32.2703 27.1206L19.2158 16.6417H5.93984V26.6311C5.93984 27.8103 5.2306 28.2998 4.27757 28.2998H1.66227C0.4876 28.2998 0 27.5878 0 26.6311V1.89111C0 0.689709 0.465436 0.222496 1.66227 0.222496H4.27757C5.4744 0.222496 5.93984 0.93444 5.93984 1.89111V11.4134H19.2158L31.7827 1.4239C32.0265 1.17917 32.2481 0.956691 32.4919 0.71196C32.7357 0.467229 32.9573 0.467214 33.2011 0.244732C33.4449 0.244732 33.6665 0.244731 33.9103 0H34.8634H38.4096C38.875 0 39.1188 1.35925e-06 39.1188 0.244732C39.3848 0.467214 39.3848 0.689708 39.3848 0.934439V1.40165C39.3848 1.64638 39.141 1.86886 38.9194 2.11359L24.2248 13.7717L39.6285 26.1417C39.8723 26.3864 40.094 26.8536 40.094 27.0984C40.094 27.3431 40.094 27.8103 39.8502 27.8103C39.6064 27.8103 39.3848 28.055 39.141 28.055H35.351C34.8634 28.5445 34.6418 28.5445 34.3979 28.5445Z" fill="white"/>
<path d="M172.893 28.5439V18.7769L154.386 2.58017C154.143 2.58017 154.142 2.33544 153.921 2.11296C153.677 1.86823 153.921 1.64574 153.921 1.40101C153.921 1.15628 153.921 0.689068 154.165 0.689068C154.408 0.444337 154.63 0.444336 155.118 0.444336H158.908H159.861C160.104 0.444336 160.326 0.444337 160.57 0.689068C160.814 0.689068 161.035 0.933797 161.279 1.15628C161.523 1.40101 161.745 1.62349 161.988 1.86822L179.054 16.8636V27.0978C179.054 28.0544 178.345 28.7664 177.392 28.7664L172.893 28.5439Z" fill="white"/>
</svg>
