1<?xml version="1.0" standalone="no"?>
<!DOCTYPE svg PUBLIC "-//W3C//DTD SVG 20010904//EN"
 "http://www.w3.org/TR/2001/REC-SVG-20010904/DTD/svg10.dtd">
<svg version="1.0" xmlns="http://www.w3.org/2000/svg"
 width="500.000000pt" height="500.000000pt" viewBox="0 0 500.000000 500.000000"
 preserveAspectRatio="xMidYMid meet">
<metadata>
Created by potrace 1.16, written by Peter Selinger 2001-2019
</metadata>
<g transform="translate(0.000000,500.000000) scale(0.100000,-0.100000)"
fill="#000000" stroke="none">
<path d="M353 2538 c-65 -101 -129 -200 -142 -220 l-23 -38 61 0 61 0 83 128
c46 70 99 153 117 185 l35 58 5 -38 c3 -26 36 -86 100 -186 l95 -146 62 -1 63
0 -18 28 c-9 16 -73 115 -142 220 l-125 192 -56 0 -56 0 -120 -182z"/>
<path d="M1046 2708 c4 -7 67 -106 142 -220 l134 -208 53 0 c37 0 56 5 67 18
8 9 64 93 124 187 97 151 109 166 112 140 2 -17 49 -100 105 -187 l101 -158
62 0 62 0 35 53 c118 178 247 379 247 383 0 2 -27 4 -60 4 l-60 0 -53 -82
c-116 -180 -168 -258 -171 -258 -2 0 -52 76 -112 170 l-109 170 -66 0 -66 0
-33 -52 c-175 -272 -183 -283 -194 -265 -6 10 -55 85 -108 167 l-98 150 -60 0
c-46 0 -59 -3 -54 -12z"/>
<path d="M2610 2510 c-74 -116 -136 -214 -138 -220 -2 -6 20 -10 56 -10 71 0
51 -21 201 214 96 150 101 157 101 121 0 -31 18 -65 97 -186 l96 -149 64 0
c49 0 62 3 57 13 -5 6 -63 96 -130 198 -67 103 -127 196 -133 208 -10 18 -20
21 -74 20 l-62 0 -135 -209z"/>
<path d="M3360 2499 l0 -220 229 3 c214 3 232 4 257 24 61 45 69 66 69 183 0
101 -2 110 -28 149 -49 75 -75 82 -317 82 l-210 0 0 -221z m415 115 c28 -11
45 -60 45 -130 0 -104 -1 -104 -192 -104 l-158 0 0 104 c0 97 -2 106 -22 120
-21 15 -10 16 144 16 91 0 174 -3 183 -6z"/>
<path d="M4387 2683 c-14 -21 -77 -118 -141 -216 -64 -98 -116 -180 -116 -182
0 -3 28 -5 63 -5 l62 0 49 78 c27 42 79 124 115 182 l66 104 5 -35 c3 -21 42
-92 100 -182 l95 -147 63 0 c48 0 61 3 56 13 -4 6 -68 105 -142 220 l-134 207
-59 0 c-57 0 -59 -1 -82 -37z"/>
</g>
</svg>
