<?xml version="1.0"?>
<svg xmlns="http://www.w3.org/2000/svg" xmlns:xlink="http://www.w3.org/1999/xlink" xmlns:svgjs="http://svgjs.com/svgjs" version="1.1" width="512" height="512" x="0" y="0" viewBox="0 0 512 511" style="enable-background:new 0 0 512 512" xml:space="preserve" class=""><g><path xmlns="http://www.w3.org/2000/svg" d="m496.96875 308.601562c0 12.429688-10.109375 22.542969-22.542969 22.542969h-2.503906v-122.738281c0-20.71875-16.855469-37.574219-37.574219-37.574219h-8.160156v15.03125h8.160156c12.433594 0 22.542969 10.113281 22.542969 22.542969v122.738281h-121.234375v-122.738281c0-12.429688 10.113281-22.542969 22.542969-22.542969h52.960937v-15.03125h-52.960937c-20.71875 0-37.574219 16.855469-37.574219 37.574219v122.738281h-196.882812v15.03125h350.683593c20.71875 0 37.574219-16.855469 37.574219-37.574219v-93.609374h-15.03125zm0 0" fill="#00510d" data-original="#000000" style="" class=""/><path xmlns="http://www.w3.org/2000/svg" d="m474.425781.5h-141.5625v15.03125h141.5625c12.433594 0 22.542969 10.113281 22.542969 22.542969v161.886719h15.03125v-161.886719c0-20.71875-16.855469-37.574219-37.574219-37.574219zm0 0" fill="#00510d" data-original="#000000" style="" class=""/><path xmlns="http://www.w3.org/2000/svg" d="m15.03125 38.074219c0-12.429688 10.109375-22.542969 22.542969-22.542969h280.261719v-15.03125h-280.261719c-20.71875 0-37.574219 16.855469-37.574219 37.574219v23.1875h15.03125zm0 0" fill="#00510d" data-original="#000000" style="" class=""/><path xmlns="http://www.w3.org/2000/svg" d="m15.03125 308.601562v-232.308593h-15.03125v232.308593c0 20.71875 16.855469 37.574219 37.574219 37.574219h71.136719v-15.03125h-71.136719c-12.433594 0-22.542969-10.113281-22.542969-22.542969zm0 0" fill="#00510d" data-original="#000000" style="" class=""/><path xmlns="http://www.w3.org/2000/svg" d="m295.578125 40.578125h-255.5v195.382813h255.5zm-75.148437 180.351563h-15.027344v-21.542969h-15.03125v21.542969h-45.085938v-21.542969h-15.03125v21.542969h-15.027344v-17.535157c0-21.316406 12.777344-40.503906 32.089844-48.699219 5.902344 3.863282 12.945313 6.117188 20.511719 6.117188 7.457031 0 14.40625-2.191406 20.257813-5.953125 19.480468 8.121094 32.34375 27.199219 32.34375 48.535156zm-75.144532-97.691407v-15.027343c0-12.429688 10.113282-22.542969 22.542969-22.542969s22.542969 10.113281 22.542969 22.542969v15.027343c0 12.433594-10.113282 22.546875-22.542969 22.546875s-22.542969-10.113281-22.542969-22.546875zm135.261719 97.691407h-45.085937v-17.535157c0-25.367187-14.132813-48.253906-36.066407-59.8125 3.792969-5.867187 6.007813-12.851562 6.007813-20.34375v-15.027343c0-20.71875-16.855469-37.574219-37.574219-37.574219s-37.574219 16.855469-37.574219 37.574219v15.027343c0 7.414063 2.167969 14.324219 5.886719 20.152344-21.832031 11.621094-35.945313 34.644531-35.945313 60.003906v17.535157h-45.085937v-165.320313h225.4375zm0 0" fill="#00510d" data-original="#000000" style="" class=""/><path xmlns="http://www.w3.org/2000/svg" d="m77.652344 250.988281c-15.195313 0-27.554688 12.363281-27.554688 27.554688 0 15.191406 12.359375 27.554687 27.554688 27.554687h50.097656c15.191406 0 27.554688-12.363281 27.554688-27.554687 0-15.191407-12.363282-27.554688-27.554688-27.554688zm62.621094 27.554688c0 6.90625-5.617188 12.523437-12.523438 12.523437h-50.097656c-6.90625 0-12.523438-5.617187-12.523438-12.523437s5.617188-12.523438 12.523438-12.523438h50.097656c6.90625 0 12.523438 5.617188 12.523438 12.523438zm0 0" fill="#00510d" data-original="#000000" style="" class=""/><path xmlns="http://www.w3.org/2000/svg" d="m207.90625 250.988281c-15.195312 0-27.554688 12.363281-27.554688 27.554688 0 15.191406 12.359376 27.554687 27.554688 27.554687h50.097656c15.195313 0 27.554688-12.363281 27.554688-27.554687 0-15.191407-12.359375-27.554688-27.554688-27.554688zm62.621094 27.554688c0 6.90625-5.617188 12.523437-12.523438 12.523437h-50.097656c-6.90625 0-12.523438-5.617187-12.523438-12.523437s5.617188-12.523438 12.523438-12.523438h50.097656c6.90625 0 12.523438 5.617188 12.523438 12.523438zm0 0" fill="#00510d" data-original="#000000" style="" class=""/><path xmlns="http://www.w3.org/2000/svg" d="m429.339844 100.695312h36.070312v15.03125h-36.070312zm0 0" fill="#00510d" data-original="#000000" style="" class=""/><path xmlns="http://www.w3.org/2000/svg" d="m378.238281 100.695312h36.070313v15.03125h-36.070313zm0 0" fill="#00510d" data-original="#000000" style="" class=""/><path xmlns="http://www.w3.org/2000/svg" d="m327.140625 100.695312h36.070313v15.03125h-36.070313zm0 0" fill="#00510d" data-original="#000000" style="" class=""/><path xmlns="http://www.w3.org/2000/svg" d="m429.339844 130.753906h36.070312v15.03125h-36.070312zm0 0" fill="#00510d" data-original="#000000" style="" class=""/><path xmlns="http://www.w3.org/2000/svg" d="m378.238281 130.753906h36.070313v15.03125h-36.070313zm0 0" fill="#00510d" data-original="#000000" style="" class=""/><path xmlns="http://www.w3.org/2000/svg" d="m327.140625 130.753906h36.070313v15.03125h-36.070313zm0 0" fill="#00510d" data-original="#000000" style="" class=""/><path xmlns="http://www.w3.org/2000/svg" d="m327.140625 70.636719h36.070313v15.03125h-36.070313zm0 0" fill="#00510d" data-original="#000000" style="" class=""/><path xmlns="http://www.w3.org/2000/svg" d="m378.238281 70.636719h36.070313v15.03125h-36.070313zm0 0" fill="#00510d" data-original="#000000" style="" class=""/><path xmlns="http://www.w3.org/2000/svg" d="m429.339844 70.636719h36.070312v15.03125h-36.070312zm0 0" fill="#00510d" data-original="#000000" style="" class=""/><path xmlns="http://www.w3.org/2000/svg" d="m327.140625 40.578125h36.070313v15.03125h-36.070313zm0 0" fill="#00510d" data-original="#000000" style="" class=""/><path xmlns="http://www.w3.org/2000/svg" d="m378.238281 40.578125h36.070313v15.03125h-36.070313zm0 0" fill="#00510d" data-original="#000000" style="" class=""/><path xmlns="http://www.w3.org/2000/svg" d="m429.339844 40.578125h36.070312v15.03125h-36.070312zm0 0" fill="#00510d" data-original="#000000" style="" class=""/><path xmlns="http://www.w3.org/2000/svg" d="m418.816406 301.085938h15.03125v15.03125h-15.03125zm0 0" fill="#00510d" data-original="#000000" style="" class=""/><path xmlns="http://www.w3.org/2000/svg" d="m388.757812 301.085938h15.03125v15.03125h-15.03125zm0 0" fill="#00510d" data-original="#000000" style="" class=""/><path xmlns="http://www.w3.org/2000/svg" d="m358.699219 301.085938h15.03125v15.03125h-15.03125zm0 0" fill="#00510d" data-original="#000000" style="" class=""/></g></svg>
