<?xml version="1.0"?>
<svg xmlns="http://www.w3.org/2000/svg" xmlns:xlink="http://www.w3.org/1999/xlink" xmlns:svgjs="http://svgjs.com/svgjs" version="1.1" width="512" height="512" x="0" y="0" viewBox="0 0 64 64" style="enable-background:new 0 0 512 512" xml:space="preserve" class=""><g><g xmlns="http://www.w3.org/2000/svg"><path d="m60 11c.553 0 1-.448 1-1v-3h1c.553 0 1-.448 1-1v-4c0-.552-.447-1-1-1h-60c-.553 0-1 .448-1 1v4c0 .552.447 1 1 1h1v3c0 .552.447 1 1 1h23v2h-15c-.553 0-1 .448-1 1v27h-9c-.553 0-1 .447-1 1v4c0 .553.447 1 1 1h25v13c0 .266.105.52.293.707l1.293 1.293c1.289 1.289 3.539 1.289 4.828 0l.586-.586c.535-.533 1.465-.533 2 0l.586.586c1.289 1.289 3.539 1.289 4.828 0l.586-.586c.535-.533 1.465-.533 2 0l.586.586c1.289 1.289 3.539 1.289 4.828 0l.586-.586c.535-.533 1.465-.533 2 0l.586.586c.645.645 1.502 1 2.414 1s1.77-.355 2.414-1l1.293-1.293c.188-.187.293-.441.293-.707v-13h3c.553 0 1-.447 1-1v-4c0-.553-.447-1-1-1h-3v-30zm-57-8h58v2h-58zm2 4h54v2h-54zm8 8h14v2h-11c-.553 0-1 .448-1 1v10c0 .552.447 1 1 1h11v2h-11c-.553 0-1 .448-1 1v9h-2zm14 4v8h-10v-8zm0 14v8h-10v-8zm-24 12v-2h24v2zm29.586 15-.586.586c-.535.533-1.465.533-2 0l-1-1v-48.586h5v48.19c-.524.153-1.017.413-1.414.81zm8 0-.586.586c-.535.533-1.465.533-2 0l-.586-.586c-.397-.397-.89-.657-1.414-.81v-48.19h6v48.19c-.524.153-1.017.413-1.414.81zm8 0-.586.586c-.535.533-1.465.533-2 0l-.586-.586c-.397-.397-.89-.657-1.414-.81v-48.19h6v48.19c-.524.153-1.017.413-1.414.81zm12.414-17v2h-2v-2zm-4 16.586-1 1c-.535.533-1.465.533-2 0l-.586-.586c-.397-.397-.89-.657-1.414-.81v-48.19h5z" fill="#00510d" data-original="#000000" style="" class=""/><path d="m8 49h17v2h-17z" fill="#00510d" data-original="#000000" style="" class=""/><path d="m8 57h17v2h-17z" fill="#00510d" data-original="#000000" style="" class=""/><path d="m6 53h15v2h-15z" fill="#00510d" data-original="#000000" style="" class=""/><path d="m23 53h2v2h-2z" fill="#00510d" data-original="#000000" style="" class=""/></g></g></svg>
