<?xml version="1.0" standalone="no"?>
<!DOCTYPE svg PUBLIC "-//W3C//DTD SVG 20010904//EN"
 "http://www.w3.org/TR/2001/REC-SVG-20010904/DTD/svg10.dtd">
<svg version="1.0" xmlns="http://www.w3.org/2000/svg"
 width="2880.000000pt" height="1678.000000pt" viewBox="0 0 2880.000000 1678.000000"
 preserveAspectRatio="xMidYMid meet">
<metadata>
Created by potrace 1.16, written by Peter Selinger 2001-2019
</metadata>
<g transform="translate(0.000000,1678.000000) scale(0.100000,-0.100000)"
fill="#000000" stroke="none">
<path d="M20848 10940 c-2 -1062 0 -1930 5 -1930 4 0 7 869 7 1930 0 1062 -2
1930 -5 1930 -3 0 -6 -869 -7 -1930z"/>
<path d="M4663 12488 c-2 -5 3521 -8 7829 -8 l7833 0 -3 -436 c-1 -278 1 -433
7 -429 6 3 10 173 10 443 l1 437 -7836 0 c-4310 0 -7838 -3 -7841 -7z"/>
<path d="M23462 9678 c-1 -1539 1 -2798 6 -2798 6 0 6 3225 -1 4940 -1 360 -3
-604 -5 -2142z"/>
<path d="M3100 9740 c0 -1753 3 -2640 10 -2640 7 0 10 887 10 2640 0 1753 -3
2640 -10 2640 -7 0 -10 -887 -10 -2640z"/>
<path d="M480 10305 c0 -1170 3 -1765 10 -1765 7 0 10 595 10 1765 0 1170 -3
1765 -10 1765 -7 0 -10 -595 -10 -1765z"/>
<path d="M2055 10175 c0 -863 1 -1215 2 -782 2 434 2 1140 0 1570 -1 430 -2
76 -2 -788z"/>
<path d="M2180 10157 c0 -856 3 -1558 8 -1560 8 -6 5 3103 -3 3111 -3 3 -5
-695 -5 -1551z"/>
<path d="M15915 11590 c-4 -7 393 -10 1184 -10 l1191 0 0 -1280 0 -1280 -1187
-2 c-654 -2 -1227 -2 -1275 0 l-88 3 0 1169 c0 643 -3 1171 -7 1173 -5 3 -7
-523 -6 -1169 l2 -1174 -944 0 -945 0 0 40 c0 22 -4 40 -10 40 -14 0 -12 -74
2 -88 9 -9 789 -12 3448 -12 1890 0 3439 2 3441 4 9 10 -1 2576 -11 2576 -7 0
-10 -439 -10 -1279 0 -1015 -3 -1280 -12 -1282 -7 -2 -547 -3 -1200 -1 l-1188
2 0 1280 0 1280 1020 0 c673 0 1020 3 1020 10 0 7 -743 10 -2209 10 -1463 0
-2212 -3 -2216 -10z"/>
<path d="M28285 6416 c0 -2356 3 -4282 8 -4279 9 6 9 8563 0 8563 -5 0 -8
-1928 -8 -4284z"/>
<path d="M7980 9690 c0 -434 3 -790 8 -789 4 0 16 4 27 9 17 7 17 9 3 9 -16 1
-18 48 -18 757 0 550 3 760 11 770 9 12 111 14 580 14 373 0 569 -3 569 -10 0
-5 5 -10 10 -10 6 0 10 9 10 20 0 19 -10 19 -600 20 l-600 0 0 -790z"/>
<path d="M9660 10468 c0 -10 116 -12 580 -10 342 1 580 -1 580 -7 0 -5 9 -11
20 -14 16 -4 20 0 20 19 l0 23 -600 1 c-479 0 -600 -2 -600 -12z"/>
<path d="M11330 10468 c-3 -77 1 -1552 4 -1555 1 -2 267 -3 591 -4 553 0 588
1 601 18 11 15 13 148 14 741 0 397 -3 722 -7 722 -5 0 -7 -326 -6 -725 1
-619 -1 -725 -13 -725 -8 0 -13 -5 -12 -10 2 -7 -183 -10 -565 -10 -471 0
-571 3 -583 14 -11 12 -14 137 -14 753 0 406 0 745 0 753 0 10 9 5 25 -14 14
-16 28 -26 32 -23 3 4 -4 16 -17 27 -13 11 -21 22 -18 25 10 10 1153 6 1156
-5 2 -5 8 -10 13 -10 5 0 4 9 -3 20 -13 20 -24 20 -605 20 -468 0 -593 -3
-593 -12z"/>
<path d="M10845 9718 c0 -707 -2 -798 -17 -798 -4 0 -8 -4 -8 -9 0 -5 9 -7 20
-4 20 5 20 14 20 759 0 415 -3 754 -7 754 -5 0 -8 -316 -8 -702z"/>
<path d="M9038 10348 c-4 -10 -93 -13 -459 -13 l-454 0 0 -641 0 -641 -32 -30
c-18 -17 -30 -33 -27 -36 3 -3 21 10 40 29 l34 34 0 635 -1 636 449 -1 c411 0
450 1 456 16 4 9 5 19 2 21 -2 2 -6 -2 -8 -9z"/>
<path d="M3960 9926 c0 -239 4 -377 10 -381 7 -4 10 123 10 374 0 247 -4 381
-10 381 -6 0 -10 -131 -10 -374z"/>
<path d="M2369 9408 c-2 -916 -1 -989 6 -996 3 -3 5 403 5 901 0 499 -2 907
-5 907 -3 0 -6 -366 -6 -812z"/>
<path d="M5020 10005 l0 -55 774 -2 c426 -2 772 0 769 5 -2 4 -346 7 -764 7
l-759 0 0 50 c0 28 -4 50 -10 50 -5 0 -10 -25 -10 -55z"/>
<path d="M25782 6493 c-1 -1877 1 -3413 6 -3413 6 0 6 5588 -1 6475 -1 193 -3
-1186 -5 -3062z"/>
<path d="M25970 6407 l5 -3342 3 3334 c1 1834 -1 3338 -5 3342 -5 5 -6 -1496
-3 -3334z"/>
<path d="M3940 8523 c0 -338 4 -513 10 -503 13 21 13 1020 0 1020 -7 0 -10
-179 -10 -517z"/>
<path d="M20847 8968 c2 -5 445 -8 984 -8 538 0 979 3 979 8 0 4 -443 7 -984
7 -541 0 -982 -3 -979 -7z"/>
<path d="M6126 8733 c-3 -3 3 -14 15 -24 20 -17 20 -25 19 -938 0 -621 3 -921
10 -921 7 0 10 293 10 901 0 505 3 906 8 913 10 12 -51 79 -62 69z"/>
<path d="M17693 7743 c-10 -4 -13 -95 -13 -409 0 -268 3 -403 10 -399 6 4 10
150 10 405 0 309 3 399 13 403 6 3 8 5 2 5 -5 0 -16 -2 -22 -5z"/>
<path d="M3921 6403 c-1 -489 2 -743 9 -743 13 0 13 1436 0 1465 -5 11 -9
-299 -9 -722z"/>
<path d="M6702 6995 c6 -7 3940 -7 3946 0 3 3 -885 5 -1973 5 -1088 0 -1976
-2 -1973 -5z"/>
<path d="M13955 6910 c7 -11 2350 -12 2970 -1 235 5 -262 8 -1298 9 -1104 1
-1676 -1 -1672 -8z"/>
<path d="M19320 6890 c-10 -6 529 -10 1664 -10 924 0 1677 2 1675 4 -11 9
-3325 16 -3339 6z"/>
<path d="M13732 5805 c-2 -550 -4 -1242 -5 -1537 -1 -295 1 -534 6 -529 4 4 6
695 4 1537 -2 1268 -3 1358 -5 529z"/>
<path d="M13755 6790 c-4 -7 292 -10 879 -10 584 0 886 3 886 10 0 7 -300 10
-879 10 -576 0 -882 -3 -886 -10z"/>
<path d="M17340 6770 c10 -6 546 -10 1465 -10 919 0 1455 4 1465 10 10 6 -506
10 -1465 10 -959 0 -1475 -4 -1465 -10z"/>
<path d="M22081 6756 c11 -9 2128 -16 2134 -6 4 7 -337 10 -1066 10 -590 0
-1070 -2 -1068 -4z"/>
<path d="M24080 6248 c0 -319 -3 -488 -10 -488 -5 0 -10 -4 -10 -10 0 -5 9
-10 19 -10 19 0 20 11 20 483 1 300 -3 488 -9 497 -6 10 -10 -149 -10 -472z"/>
<path d="M14770 5890 c0 -12 977 -12 1005 0 12 5 -193 9 -492 9 -323 1 -513
-3 -513 -9z"/>
<path d="M21092 5875 c6 -7 2020 -7 2026 0 3 3 -453 5 -1013 5 -560 0 -1016
-2 -1013 -5z"/>
<path d="M2342 4718 c-1 -566 2 -1028 6 -1028 7 0 5 1997 -2 2035 -2 11 -4
-442 -4 -1007z"/>
<path d="M22861 5504 c2 -47 6 -87 11 -90 4 -3 8 11 8 30 l0 36 1210 2 c666 2
1210 0 1210 -4 0 -5 5 -8 10 -8 6 0 10 7 10 15 0 11 -11 15 -42 15 -24 0 -573
0 -1220 0 l-1178 0 0 45 c0 25 -5 45 -10 45 -7 0 -10 -31 -9 -86z"/>
<path d="M24060 4736 c0 -394 4 -627 10 -631 6 -4 10 219 10 625 0 419 -3 630
-10 630 -7 0 -10 -209 -10 -624z"/>
<path d="M22848 5134 c-13 -13 -10 -594 3 -594 7 0 9 9 6 21 -11 42 -3 44 129
41 82 -3 130 0 137 7 8 8 -28 11 -126 11 l-137 0 -2 261 c-2 143 -6 257 -10
253z"/>
<path d="M16460 5071 c0 -22 -5 -41 -12 -44 -10 -3 -10 -10 1 -28 12 -20 14
-98 12 -446 -2 -301 1 -423 9 -423 8 0 10 141 9 490 0 282 -5 490 -10 490 -5
0 -9 -18 -9 -39z"/>
<path d="M20880 5029 c0 -6 33 -10 93 -9 50 1 100 1 110 1 16 -1 17 -18 17
-211 l0 -210 489 0 c316 0 492 4 496 10 4 7 -158 10 -479 10 l-486 0 0 200 0
200 93 1 c50 1 106 5 122 9 17 4 -79 8 -212 9 -165 1 -243 -2 -243 -10z"/>
<path d="M19867 4913 c-12 -11 -8 -833 3 -833 7 0 10 147 10 420 0 231 -1 420
-3 420 -2 0 -7 -3 -10 -7z"/>
<path d="M12260 4568 c0 -10 -198 -12 -964 -10 -593 1 -973 -1 -987 -7 -16 -6
292 -10 864 -10 781 -1 887 -3 887 -16 0 -8 5 -15 10 -15 6 0 10 7 10 15 0 12
19 15 110 15 108 0 110 0 98 20 -14 23 -28 26 -28 8z"/>
<path d="M20620 3990 c-14 -4 269 -8 628 -9 409 -1 652 3 652 9 0 11 -1244 12
-1280 0z"/>
<path d="M20540 3450 c0 -240 4 -370 10 -370 6 0 10 53 10 140 l0 140 400 0
c260 0 400 4 400 10 0 7 -140 10 -400 10 l-400 0 0 220 c0 140 -4 220 -10 220
-6 0 -10 -130 -10 -370z"/>
<path d="M13920 3793 c0 -5 456 -8 1012 -8 l1013 0 -3 -22 c-2 -12 2 -24 8
-28 6 -4 10 7 10 29 l0 36 -1020 0 c-561 0 -1020 -3 -1020 -7z"/>
<path d="M17181 2898 c0 -420 4 -772 9 -783 5 -12 9 298 9 739 0 485 4 763 10
769 9 9 -8 37 -23 37 -3 0 -6 -343 -5 -762z"/>
<path d="M22566 3652 c-5 -9 -180 -12 -737 -12 -484 0 -729 -3 -729 -10 0 -7
256 -10 765 -10 496 0 764 4 760 10 -3 6 -15 10 -25 10 -10 0 -20 5 -22 12 -3
9 -6 9 -12 0z"/>
<path d="M18114 3632 c2 -4 355 -9 783 -9 533 -2 779 -5 781 -13 6 -18 22 -11
22 10 0 20 -7 20 -796 20 -437 0 -793 -4 -790 -8z"/>
<path d="M20368 3617 c-5 -10 -8 -59 -8 -108 0 -49 -4 -89 -9 -89 -4 0 -20 14
-34 32 -15 17 -30 29 -33 25 -7 -6 48 -63 67 -69 7 -2 10 -190 9 -563 0 -383
3 -556 10 -549 7 7 9 229 8 675 -2 365 -6 656 -10 646z"/>
<path d="M19680 3430 l0 -70 -80 0 c-47 0 -80 -4 -80 -10 0 -6 33 -10 80 -10
l80 0 0 -330 c0 -213 4 -330 10 -330 7 0 10 143 10 410 0 267 -3 410 -10 410
-6 0 -10 -30 -10 -70z"/>
<path d="M17358 3463 c-9 -21 3 -1013 12 -1008 13 8 14 1015 1 1015 -6 0 -11
-3 -13 -7z"/>
<path d="M17550 3370 c0 -7 142 -10 406 -10 267 0 403 3 399 10 -4 6 -150 10
-406 10 -259 0 -399 -4 -399 -10z"/>
<path d="M19120 2813 c0 -352 4 -542 10 -532 14 24 14 1073 0 1077 -7 3 -10
-171 -10 -545z"/>
<path d="M22027 3153 c-12 -11 -8 -1093 3 -1093 7 0 10 190 10 550 0 303 -1
550 -3 550 -2 0 -7 -3 -10 -7z"/>
<path d="M19860 2395 c0 -270 3 -415 10 -415 7 0 10 145 10 415 0 270 -3 415
-10 415 -7 0 -10 -145 -10 -415z"/>
<path d="M22641 2008 c-1 -280 2 -428 9 -428 12 0 12 778 0 825 -4 17 -8 -162
-9 -397z"/>
<path d="M1555 1830 c-11 -5 2610 -9 5870 -9 3309 0 5881 4 5870 9 -26 11
-11714 11 -11740 0z"/>
</g>
</svg>
