<?xml version="1.0" encoding="UTF-8"?>
<!DOCTYPE svg PUBLIC "-//W3C//DTD SVG 1.1//EN" "http://www.w3.org/Graphics/SVG/1.1/DTD/svg11.dtd">
<!-- Creator: CorelDRAW 2020 (64-Bit) -->
<svg xmlns="http://www.w3.org/2000/svg" xml:space="preserve" width="100%" height="100%" version="1.1" style="shape-rendering:geometricPrecision; text-rendering:geometricPrecision; image-rendering:optimizeQuality; fill-rule:evenodd; clip-rule:evenodd"
viewBox="0 0 100000 55000"
 xmlns:xlink="http://www.w3.org/1999/xlink"
 xmlns:xodm="http://www.corel.com/coreldraw/odm/2003">
 <defs>
  <style type="text/css">
   <![CDATA[
    .fil0 {fill:none}
    .fil1 {fill:#0057B7}
   ]]>
  </style>
 </defs>
 <g id="Layer_x0020_1">
  <metadata id="CorelCorpID_0Corel-Layer"/>
  <g id="_2645933490064">
   <rect class="fil0" x="-0.1" y="-0" width="100000" height="55000"/>
   <path class="fil1" d="M77121.8 37246.7l2882 0 0 -11067.9 -2884.1 -2616.8 2.1 13684.7zm-57122.7 0l2882.1 0 0 -11067.9 -2884.1 -2616.8 2 13684.7zm2882.1 -14701.5l0 -4469.7 -2884.9 0 0.5 1852.2 2884.4 2617.5zm5406.1 -4469.7l0 19171.2 2884.5 0 -2.2 -16479.5 5699.4 -0.7c2292,1 4149.7,1859.4 4149.7,4151.6 0,2290.9 -1855.5,4148.5 -4145.9,4151.6l-4966.7 -0.6 9012.3 8177.6 4004.4 0 -6255.7 -5676.1c3004,-722.8 5236.2,-3426.7 5236.2,-6652.5 0,-3779 -3063.4,-6842.6 -6842.4,-6842.6l-8773.6 0zm20273.2 19171.2l2882.1 0 0 -11067.9 -2884.1 -2616.8 2 13684.7zm2882.1 -14701.5l0 -4469.7 -2884.9 0 0.1 1852.2 2884.8 2617.5zm20264.2 14701.5l0 -19171.2 -2884.8 0 2.4 16479.5 -5699.3 0.9c-2292.1,-1.1 -4150,-1859.4 -4150,-4151.8 0,-2290.9 1855.6,-4148.5 4145.9,-4151.6l4966.9 0.6 -2966 -2691.3 -2188.7 -0.3c-3779.1,0 -6842.6,3063.5 -6842.6,6842.6 0,3779.2 3063.5,6842.6 6842.6,6842.6l8773.6 0zm8297 -14701.5l0 -4469.7 -2884.9 0 0.5 1852.2 2884.4 2617.5z"/>
  </g>
 </g>
</svg>
