<svg width="144" height="48" viewBox="0 0 144 48" fill="none" xmlns="http://www.w3.org/2000/svg">
<path d="M0 5.43408H11.7045V20.0952H29.7313V5.43408H41.5915V47.2109H29.7313V29.2387H11.7045V47.2109H0V5.43408Z" fill="white"/>
<path d="M47.5936 5.43408H72.1043C75.5857 5.43408 78.2739 5.90627 80.3304 7.01095C82.4681 7.94258 84.2825 9.47717 85.5481 11.4239C86.97 13.3184 87.9189 15.5249 88.5535 18.0461C89.1989 20.6773 89.5166 23.377 89.4995 26.0849C89.4995 30.6572 89.0255 34.1257 88.0776 36.4905C87.1276 39.0166 85.8634 41.0666 84.2848 42.6406C82.7003 44.3758 80.9591 45.4795 79.0612 45.9517C76.5346 46.7387 74.1638 47.2109 72.1043 47.2109H47.5936V5.43408ZM59.6125 14.8924V37.7526H69.1018C71.4727 37.7526 73.2148 37.4378 74.1638 36.8053C75.2684 36.1757 76.0587 35.071 76.6933 33.6545C77.1633 32.235 77.4836 29.7138 77.4836 26.3997C77.4836 21.9868 76.851 18.9924 75.5857 17.4165C74.3195 15.6677 72.1043 14.8924 69.1018 14.8924H59.6125Z" fill="white"/>
<path d="M95.5166 5.43408H107.377V37.7526H133.63V47.2109H95.5166V5.43408Z" fill="white"/>
<path d="M133.629 5.38177C133.627 4.81694 133.726 4.25624 133.923 3.7262C134.116 3.16948 134.395 2.64623 134.752 2.17557C135.25 1.55009 135.89 1.05065 136.62 0.718201C137.301 0.379947 138.053 0.206168 138.815 0.211037C139.383 0.213055 139.945 0.318777 140.475 0.522915C141.034 0.711907 141.559 0.990542 142.029 1.34778C142.623 1.87512 143.115 2.50645 143.48 3.21029C143.8 3.8916 143.977 4.63043 144 5.38177C143.963 6.08773 143.823 6.78469 143.586 7.45122C143.267 8.04173 142.883 8.5959 142.443 9.10387C141.961 9.57547 141.401 9.96014 140.786 10.2406C140.154 10.4766 139.489 10.6161 138.815 10.6545C138.138 10.6266 137.471 10.4867 136.84 10.2406C136.223 9.93166 135.598 9.62269 135.183 9.10387C134.678 8.64947 134.287 8.08329 134.044 7.45122C133.748 6.80186 133.606 6.09392 133.629 5.38177ZM138.815 0.718201C137.579 0.741725 136.396 1.2219 135.498 2.0648C134.651 2.9642 134.17 4.14257 134.146 5.37302C134.147 6.61275 134.636 7.80321 135.507 8.69146C136.379 9.5797 137.566 10.0957 138.815 10.1299C139.424 10.1304 140.027 10.0005 140.582 9.749C141.137 9.49751 141.63 9.13033 142.029 8.67249C142.471 8.24738 142.819 7.73487 143.05 7.16806C143.281 6.60124 143.389 5.99272 143.368 5.38177C143.379 4.77796 143.269 4.17804 143.045 3.61647C142.821 3.0549 142.488 2.54273 142.064 2.1094C141.64 1.67606 141.134 1.33008 140.575 1.09134C140.016 0.852596 139.414 0.72579 138.806 0.718201" fill="white"/>
<path d="M140.058 5.69049C140.505 5.63935 140.914 5.41649 141.198 5.06965C141.347 4.9444 141.462 4.78492 141.535 4.60509C141.608 4.42526 141.635 4.23053 141.615 4.03784C141.622 3.79603 141.569 3.55624 141.46 3.33967C141.351 3.12309 141.191 2.93642 140.992 2.79617C140.578 2.4872 139.955 2.27734 139.021 2.27734H136.532V8.37204H137.672V6.09564H138.709C139.332 6.09564 139.749 6.30259 139.955 6.61446C140.266 7.02835 140.369 7.54426 140.369 8.3633H141.512V8.08057C141.512 7.3548 141.409 6.83889 141.198 6.52702C140.992 6.10438 140.578 5.89744 140.058 5.69049ZM138.709 5.16584H137.672V3.30333H138.815C139.332 3.30333 139.749 3.30333 140.058 3.51028C140.179 3.56444 140.282 3.6514 140.356 3.7612C140.43 3.871 140.471 3.9992 140.475 4.13111C140.462 4.30042 140.408 4.46408 140.317 4.6082C140.227 4.75231 140.102 4.87261 139.955 4.95889C139.556 5.10461 139.134 5.17481 138.709 5.16584Z" fill="white"/>
</svg>
